<svg xmlns="http://www.w3.org/2000/svg" viewBox="0 0 204 308" width="204" height="308">
<g fill="#211532" fill-rule="evenodd">
  <path d="M 102 25 L 103 25 L 103 26 L 104 26 L 104 27 L 105 27 L 105 28 L 106 28 L 106 30 L 107 30 L 107 31 L 108 31 L 108 32 L 109 32 L 109 33 L 110 33 L 110 34 L 111 34 L 111 35 L 112 35 L 112 36 L 113 36 L 113 37 L 114 37 L 114 38 L 115 38 L 115 39 L 114 39 L 114 40 L 113 40 L 113 41 L 112 41 L 112 42 L 111 42 L 111 43 L 110 43 L 110 44 L 109 44 L 109 45 L 108 45 L 108 46 L 107 46 L 107 47 L 106 47 L 106 48 L 105 48 L 105 50 L 104 50 L 104 51 L 103 51 L 103 52 L 101 52 L 101 50 L 100 50 L 100 49 L 99 49 L 99 48 L 98 48 L 98 47 L 97 47 L 97 46 L 96 46 L 96 45 L 95 45 L 95 44 L 94 44 L 94 43 L 93 43 L 93 42 L 92 42 L 92 41 L 91 41 L 91 40 L 90 40 L 90 37 L 91 37 L 91 36 L 92 36 L 92 35 L 93 35 L 93 34 L 94 34 L 94 33 L 95 33 L 95 32 L 96 32 L 96 31 L 97 31 L 97 30 L 98 30 L 98 29 L 99 29 L 99 28 L 100 28 L 100 27 L 101 27 L 101 26 L 102 26 L 102 25 Z"/>
  <path d="M 72 26 L 75 26 L 75 27 L 76 27 L 76 28 L 77 28 L 77 29 L 78 29 L 78 30 L 79 30 L 79 31 L 80 31 L 80 32 L 81 32 L 81 33 L 82 33 L 82 34 L 83 34 L 83 35 L 84 35 L 84 36 L 85 36 L 85 37 L 86 37 L 86 38 L 87 38 L 87 39 L 86 39 L 86 40 L 85 40 L 85 41 L 84 41 L 84 42 L 83 42 L 83 43 L 82 43 L 82 44 L 81 44 L 81 45 L 80 45 L 80 46 L 79 46 L 79 47 L 78 47 L 78 48 L 77 48 L 77 50 L 76 50 L 76 51 L 75 51 L 75 52 L 73 52 L 73 50 L 72 50 L 72 49 L 71 49 L 71 48 L 70 48 L 70 47 L 69 47 L 69 46 L 68 46 L 68 45 L 67 45 L 67 44 L 66 44 L 66 43 L 65 43 L 65 42 L 64 42 L 64 41 L 63 41 L 63 40 L 62 40 L 62 39 L 61 39 L 61 38 L 62 38 L 62 37 L 63 37 L 63 36 L 64 36 L 64 35 L 65 35 L 65 34 L 66 34 L 66 33 L 67 33 L 67 32 L 68 32 L 68 31 L 69 31 L 69 30 L 70 30 L 70 29 L 71 29 L 71 27 L 72 27 L 72 26 Z"/>
  <path d="M 79 63 L 100 63 L 100 64 L 105 64 L 105 65 L 108 65 L 108 66 L 111 66 L 111 67 L 113 67 L 113 68 L 115 68 L 115 69 L 117 69 L 117 70 L 118 70 L 118 71 L 120 71 L 120 72 L 121 72 L 121 73 L 123 73 L 123 74 L 124 74 L 124 75 L 125 75 L 125 76 L 127 76 L 127 77 L 128 77 L 128 78 L 129 78 L 129 79 L 130 79 L 130 80 L 131 80 L 131 81 L 132 81 L 132 83 L 133 83 L 133 84 L 134 84 L 134 85 L 135 85 L 135 86 L 136 86 L 136 88 L 137 88 L 137 89 L 138 89 L 138 90 L 139 90 L 139 92 L 140 92 L 140 93 L 141 93 L 141 95 L 142 95 L 142 97 L 143 97 L 143 99 L 144 99 L 144 101 L 145 101 L 145 104 L 146 104 L 146 107 L 147 107 L 147 111 L 148 111 L 148 115 L 149 115 L 149 144 L 147 144 L 147 145 L 146 145 L 146 146 L 144 146 L 144 147 L 142 147 L 142 148 L 141 148 L 141 149 L 139 149 L 139 150 L 138 150 L 138 151 L 136 151 L 136 152 L 134 152 L 134 124 L 133 124 L 133 117 L 132 117 L 132 113 L 131 113 L 131 109 L 130 109 L 130 107 L 129 107 L 129 105 L 128 105 L 128 103 L 127 103 L 127 101 L 126 101 L 126 99 L 125 99 L 125 98 L 124 98 L 124 96 L 123 96 L 123 95 L 122 95 L 122 94 L 121 94 L 121 93 L 120 93 L 120 92 L 119 92 L 119 91 L 118 91 L 118 90 L 117 90 L 117 89 L 116 89 L 116 88 L 115 88 L 115 87 L 113 87 L 113 86 L 112 86 L 112 85 L 110 85 L 110 84 L 109 84 L 109 83 L 107 83 L 107 82 L 104 82 L 104 81 L 102 81 L 102 80 L 98 80 L 98 79 L 92 79 L 92 78 L 86 78 L 86 79 L 80 79 L 80 80 L 76 80 L 76 81 L 73 81 L 73 82 L 71 82 L 71 83 L 69 83 L 69 84 L 67 84 L 67 85 L 66 85 L 66 86 L 64 86 L 64 87 L 63 87 L 63 88 L 61 88 L 61 89 L 60 89 L 60 90 L 59 90 L 59 91 L 58 91 L 58 92 L 57 92 L 57 93 L 56 93 L 56 94 L 55 94 L 55 95 L 54 95 L 54 97 L 53 97 L 53 98 L 52 98 L 52 99 L 51 99 L 51 101 L 50 101 L 50 103 L 49 103 L 49 104 L 48 104 L 48 106 L 47 106 L 47 109 L 46 109 L 46 111 L 45 111 L 45 115 L 44 115 L 44 119 L 43 119 L 43 210 L 42 210 L 42 211 L 41 211 L 41 212 L 39 212 L 39 213 L 37 213 L 37 214 L 36 214 L 36 215 L 34 215 L 34 216 L 32 216 L 32 217 L 31 217 L 31 218 L 29 218 L 29 219 L 27 219 L 27 124 L 28 124 L 28 115 L 29 115 L 29 111 L 30 111 L 30 107 L 31 107 L 31 104 L 32 104 L 32 102 L 33 102 L 33 100 L 34 100 L 34 97 L 35 97 L 35 96 L 36 96 L 36 94 L 37 94 L 37 92 L 38 92 L 38 91 L 39 91 L 39 89 L 40 89 L 40 88 L 41 88 L 41 86 L 42 86 L 42 85 L 43 85 L 43 84 L 44 84 L 44 83 L 45 83 L 45 82 L 46 82 L 46 81 L 47 81 L 47 80 L 48 80 L 48 79 L 49 79 L 49 78 L 50 78 L 50 77 L 51 77 L 51 76 L 52 76 L 52 75 L 54 75 L 54 74 L 55 74 L 55 73 L 56 73 L 56 72 L 58 72 L 58 71 L 60 71 L 60 70 L 61 70 L 61 69 L 63 69 L 63 68 L 66 68 L 66 67 L 68 67 L 68 66 L 71 66 L 71 65 L 74 65 L 74 64 L 79 64 L 79 63 Z"/>
  <path d="M 85 101 L 93 101 L 93 102 L 97 102 L 97 103 L 100 103 L 100 104 L 102 104 L 102 105 L 104 105 L 104 106 L 106 106 L 106 107 L 107 107 L 107 108 L 109 108 L 109 109 L 110 109 L 110 110 L 111 110 L 111 111 L 112 111 L 112 113 L 113 113 L 113 114 L 114 114 L 114 116 L 115 116 L 115 117 L 116 117 L 116 119 L 117 119 L 117 122 L 118 122 L 118 125 L 119 125 L 119 173 L 117 173 L 117 174 L 115 174 L 115 175 L 113 175 L 113 176 L 111 176 L 111 177 L 109 177 L 109 178 L 106 178 L 106 179 L 104 179 L 104 180 L 102 180 L 102 181 L 100 181 L 100 182 L 97 182 L 97 183 L 95 183 L 95 184 L 93 184 L 93 185 L 90 185 L 90 186 L 88 186 L 88 187 L 86 187 L 86 188 L 83 188 L 83 189 L 81 189 L 81 190 L 79 190 L 79 191 L 77 191 L 77 192 L 76 192 L 76 193 L 74 193 L 74 249 L 73 249 L 73 251 L 72 251 L 72 252 L 71 252 L 71 253 L 68 253 L 68 254 L 63 254 L 63 253 L 61 253 L 61 252 L 60 252 L 60 251 L 59 251 L 59 126 L 60 126 L 60 123 L 61 123 L 61 120 L 62 120 L 62 118 L 63 118 L 63 116 L 64 116 L 64 115 L 65 115 L 65 113 L 66 113 L 66 112 L 67 112 L 67 111 L 68 111 L 68 110 L 69 110 L 69 109 L 70 109 L 70 108 L 71 108 L 71 107 L 72 107 L 72 106 L 74 106 L 74 105 L 76 105 L 76 104 L 78 104 L 78 103 L 81 103 L 81 102 L 85 102 L 85 101 Z"/>
  <path d="M 89 116 L 88 116 L 88 117 L 84 117 L 84 118 L 82 118 L 82 119 L 80 119 L 80 120 L 79 120 L 79 121 L 78 121 L 78 122 L 77 122 L 77 123 L 76 123 L 76 125 L 75 125 L 75 127 L 74 127 L 74 148 L 73 148 L 73 154 L 74 154 L 74 175 L 73 175 L 73 176 L 75 176 L 75 175 L 76 175 L 76 174 L 79 174 L 79 173 L 81 173 L 81 172 L 83 172 L 83 171 L 86 171 L 86 170 L 88 170 L 88 169 L 90 169 L 90 168 L 93 168 L 93 167 L 95 167 L 95 166 L 97 166 L 97 165 L 99 165 L 99 164 L 102 164 L 102 163 L 104 163 L 104 162 L 105 162 L 105 129 L 104 129 L 104 126 L 103 126 L 103 124 L 102 124 L 102 123 L 101 123 L 101 122 L 100 122 L 100 121 L 99 121 L 99 120 L 98 120 L 98 119 L 97 119 L 97 118 L 95 118 L 95 117 L 91 117 L 91 116 L 89 116 Z"/>
  <path d="M 147 150 L 149 150 L 149 164 L 148 164 L 148 165 L 147 165 L 147 166 L 145 166 L 145 167 L 144 167 L 144 168 L 142 168 L 142 169 L 141 169 L 141 170 L 139 170 L 139 171 L 138 171 L 138 172 L 136 172 L 136 173 L 133 173 L 133 164 L 134 164 L 134 159 L 135 159 L 135 158 L 137 158 L 137 157 L 138 157 L 138 156 L 140 156 L 140 155 L 142 155 L 142 154 L 143 154 L 143 153 L 145 153 L 145 152 L 146 152 L 146 151 L 147 151 L 147 150 Z"/>
  <path d="M 147 172 L 149 172 L 149 258 L 148 258 L 148 262 L 147 262 L 147 264 L 146 264 L 146 267 L 145 267 L 145 269 L 144 269 L 144 271 L 143 271 L 143 272 L 142 272 L 142 274 L 141 274 L 141 275 L 140 275 L 140 276 L 139 276 L 139 277 L 138 277 L 138 278 L 137 278 L 137 279 L 136 279 L 136 280 L 134 280 L 134 281 L 133 281 L 133 282 L 131 282 L 131 283 L 129 283 L 129 284 L 126 284 L 126 285 L 122 285 L 122 286 L 118 286 L 118 285 L 113 285 L 113 284 L 111 284 L 111 283 L 109 283 L 109 282 L 108 282 L 108 281 L 106 281 L 106 282 L 105 282 L 105 283 L 103 283 L 103 284 L 101 284 L 101 285 L 96 285 L 96 286 L 93 286 L 93 285 L 89 285 L 89 284 L 87 284 L 87 283 L 85 283 L 85 282 L 84 282 L 84 281 L 82 281 L 82 280 L 80 280 L 80 281 L 78 281 L 78 282 L 76 282 L 76 283 L 73 283 L 73 284 L 70 284 L 70 285 L 65 285 L 65 286 L 58 286 L 58 285 L 53 285 L 53 284 L 49 284 L 49 283 L 47 283 L 47 282 L 45 282 L 45 281 L 43 281 L 43 280 L 42 280 L 42 279 L 41 279 L 41 278 L 40 278 L 40 277 L 38 277 L 38 276 L 37 276 L 37 275 L 36 275 L 36 273 L 35 273 L 35 272 L 34 272 L 34 271 L 33 271 L 33 269 L 32 269 L 32 267 L 31 267 L 31 265 L 30 265 L 30 262 L 29 262 L 29 259 L 28 259 L 28 254 L 27 254 L 27 231 L 28 231 L 28 230 L 30 230 L 30 229 L 31 229 L 31 228 L 33 228 L 33 227 L 35 227 L 35 226 L 36 226 L 36 225 L 38 225 L 38 224 L 39 224 L 39 223 L 41 223 L 41 222 L 43 222 L 43 254 L 44 254 L 44 257 L 45 257 L 45 259 L 46 259 L 46 261 L 47 261 L 47 262 L 48 262 L 48 264 L 49 264 L 49 265 L 51 265 L 51 266 L 52 266 L 52 267 L 54 267 L 54 268 L 57 268 L 57 269 L 66 269 L 66 268 L 69 268 L 69 267 L 72 267 L 72 266 L 73 266 L 73 265 L 74 265 L 74 264 L 75 264 L 75 263 L 76 263 L 76 262 L 77 262 L 77 261 L 78 261 L 78 259 L 79 259 L 79 257 L 80 257 L 80 254 L 81 254 L 81 250 L 82 250 L 82 206 L 84 206 L 84 205 L 86 205 L 86 204 L 88 204 L 88 203 L 90 203 L 90 202 L 92 202 L 92 201 L 94 201 L 94 200 L 96 200 L 96 199 L 97 199 L 97 255 L 96 255 L 96 258 L 95 258 L 95 261 L 94 261 L 94 264 L 93 264 L 93 266 L 92 266 L 92 268 L 94 268 L 94 269 L 97 269 L 97 268 L 99 268 L 99 267 L 100 267 L 100 266 L 101 266 L 101 265 L 102 265 L 102 264 L 103 264 L 103 262 L 104 262 L 104 260 L 105 260 L 105 258 L 106 258 L 106 255 L 107 255 L 107 251 L 108 251 L 108 193 L 110 193 L 110 192 L 112 192 L 112 191 L 113 191 L 113 190 L 115 190 L 115 189 L 117 189 L 117 188 L 119 188 L 119 187 L 121 187 L 121 186 L 123 186 L 123 251 L 122 251 L 122 258 L 121 258 L 121 261 L 120 261 L 120 264 L 119 264 L 119 266 L 118 266 L 118 268 L 117 268 L 117 269 L 123 269 L 123 268 L 125 268 L 125 267 L 126 267 L 126 266 L 127 266 L 127 265 L 128 265 L 128 264 L 129 264 L 129 263 L 130 263 L 130 262 L 131 262 L 131 259 L 132 259 L 132 256 L 133 256 L 133 233 L 134 233 L 134 223 L 133 223 L 133 216 L 134 216 L 134 180 L 135 180 L 135 179 L 137 179 L 137 178 L 139 178 L 139 177 L 140 177 L 140 176 L 142 176 L 142 175 L 144 175 L 144 174 L 145 174 L 145 173 L 147 173 L 147 172 Z"/>
</g>
</svg>
