<svg xmlns="http://www.w3.org/2000/svg" viewBox="0 0 389 470" width="389" height="470">
<g fill="#FFFFFF" fill-rule="evenodd">
  <path d="M 168 33 L 171 33 L 171 34 L 172 34 L 172 35 L 173 35 L 173 36 L 174 36 L 174 37 L 175 37 L 175 38 L 176 38 L 176 39 L 177 39 L 177 40 L 178 40 L 178 41 L 179 41 L 179 42 L 180 42 L 180 43 L 181 43 L 181 44 L 182 44 L 182 45 L 183 45 L 183 46 L 182 46 L 182 47 L 181 47 L 181 48 L 180 48 L 180 49 L 179 49 L 179 50 L 178 50 L 178 51 L 177 51 L 177 52 L 176 52 L 176 53 L 175 53 L 175 54 L 174 54 L 174 55 L 173 55 L 173 57 L 172 57 L 172 58 L 171 58 L 171 59 L 169 59 L 169 57 L 168 57 L 168 56 L 167 56 L 167 55 L 166 55 L 166 54 L 165 54 L 165 53 L 164 53 L 164 52 L 163 52 L 163 51 L 162 51 L 162 50 L 161 50 L 161 49 L 160 49 L 160 48 L 159 48 L 159 47 L 158 47 L 158 46 L 157 46 L 157 45 L 158 45 L 158 44 L 159 44 L 159 43 L 160 43 L 160 42 L 161 42 L 161 41 L 162 41 L 162 40 L 163 40 L 163 39 L 164 39 L 164 38 L 165 38 L 165 37 L 166 37 L 166 36 L 167 36 L 167 35 L 168 35 L 168 33 Z"/>
  <path d="M 197 33 L 200 33 L 200 34 L 201 34 L 201 35 L 202 35 L 202 37 L 203 37 L 203 38 L 204 38 L 204 39 L 205 39 L 205 40 L 206 40 L 206 41 L 207 41 L 207 42 L 208 42 L 208 43 L 209 43 L 209 44 L 210 44 L 210 45 L 211 45 L 211 46 L 210 46 L 210 47 L 209 47 L 209 48 L 208 48 L 208 49 L 207 49 L 207 50 L 206 50 L 206 51 L 205 51 L 205 52 L 204 52 L 204 53 L 203 53 L 203 54 L 202 54 L 202 55 L 201 55 L 201 57 L 200 57 L 200 58 L 199 58 L 199 59 L 197 59 L 197 57 L 196 57 L 196 56 L 195 56 L 195 55 L 194 55 L 194 54 L 193 54 L 193 53 L 192 53 L 192 52 L 191 52 L 191 51 L 190 51 L 190 50 L 189 50 L 189 49 L 188 49 L 188 48 L 187 48 L 187 47 L 186 47 L 186 44 L 187 44 L 187 43 L 188 43 L 188 42 L 189 42 L 189 41 L 190 41 L 190 40 L 191 40 L 191 39 L 192 39 L 192 38 L 193 38 L 193 37 L 194 37 L 194 36 L 195 36 L 195 35 L 196 35 L 196 34 L 197 34 L 197 33 Z"/>
  <path d="M 175 70 L 196 70 L 196 71 L 201 71 L 201 72 L 204 72 L 204 73 L 207 73 L 207 74 L 209 74 L 209 75 L 211 75 L 211 76 L 213 76 L 213 77 L 214 77 L 214 78 L 216 78 L 216 79 L 217 79 L 217 80 L 219 80 L 219 81 L 220 81 L 220 82 L 221 82 L 221 83 L 223 83 L 223 84 L 224 84 L 224 85 L 225 85 L 225 86 L 226 86 L 226 87 L 227 87 L 227 88 L 228 88 L 228 90 L 229 90 L 229 91 L 230 91 L 230 92 L 231 92 L 231 93 L 232 93 L 232 95 L 233 95 L 233 96 L 234 96 L 234 97 L 235 97 L 235 99 L 236 99 L 236 100 L 237 100 L 237 102 L 238 102 L 238 104 L 239 104 L 239 106 L 240 106 L 240 108 L 241 108 L 241 111 L 242 111 L 242 114 L 243 114 L 243 118 L 244 118 L 244 122 L 245 122 L 245 151 L 243 151 L 243 152 L 242 152 L 242 153 L 240 153 L 240 154 L 238 154 L 238 155 L 237 155 L 237 156 L 235 156 L 235 157 L 234 157 L 234 158 L 232 158 L 232 159 L 230 159 L 230 131 L 229 131 L 229 124 L 228 124 L 228 119 L 227 119 L 227 116 L 226 116 L 226 114 L 225 114 L 225 112 L 224 112 L 224 110 L 223 110 L 223 108 L 222 108 L 222 106 L 221 106 L 221 105 L 220 105 L 220 103 L 219 103 L 219 102 L 218 102 L 218 101 L 217 101 L 217 100 L 216 100 L 216 99 L 215 99 L 215 98 L 214 98 L 214 97 L 213 97 L 213 96 L 212 96 L 212 95 L 211 95 L 211 94 L 209 94 L 209 93 L 208 93 L 208 92 L 206 92 L 206 91 L 205 91 L 205 90 L 203 90 L 203 89 L 200 89 L 200 88 L 198 88 L 198 87 L 194 87 L 194 86 L 188 86 L 188 85 L 182 85 L 182 86 L 176 86 L 176 87 L 172 87 L 172 88 L 169 88 L 169 89 L 167 89 L 167 90 L 165 90 L 165 91 L 163 91 L 163 92 L 162 92 L 162 93 L 160 93 L 160 94 L 159 94 L 159 95 L 157 95 L 157 96 L 156 96 L 156 97 L 155 97 L 155 98 L 154 98 L 154 99 L 153 99 L 153 100 L 152 100 L 152 101 L 151 101 L 151 102 L 150 102 L 150 104 L 149 104 L 149 105 L 148 105 L 148 106 L 147 106 L 147 108 L 146 108 L 146 110 L 145 110 L 145 111 L 144 111 L 144 113 L 143 113 L 143 116 L 142 116 L 142 118 L 141 118 L 141 122 L 140 122 L 140 126 L 139 126 L 139 217 L 138 217 L 138 218 L 137 218 L 137 219 L 135 219 L 135 220 L 133 220 L 133 221 L 132 221 L 132 222 L 130 222 L 130 223 L 128 223 L 128 224 L 127 224 L 127 225 L 125 225 L 125 226 L 123 226 L 123 131 L 124 131 L 124 122 L 125 122 L 125 118 L 126 118 L 126 114 L 127 114 L 127 111 L 128 111 L 128 109 L 129 109 L 129 107 L 130 107 L 130 105 L 131 105 L 131 103 L 132 103 L 132 101 L 133 101 L 133 99 L 134 99 L 134 98 L 135 98 L 135 96 L 136 96 L 136 95 L 137 95 L 137 93 L 138 93 L 138 92 L 139 92 L 139 91 L 140 91 L 140 90 L 141 90 L 141 89 L 142 89 L 142 88 L 143 88 L 143 87 L 144 87 L 144 86 L 145 86 L 145 85 L 146 85 L 146 84 L 147 84 L 147 83 L 148 83 L 148 82 L 150 82 L 150 81 L 151 81 L 151 80 L 152 80 L 152 79 L 154 79 L 154 78 L 156 78 L 156 77 L 157 77 L 157 76 L 159 76 L 159 75 L 162 75 L 162 74 L 164 74 L 164 73 L 167 73 L 167 72 L 170 72 L 170 71 L 175 71 L 175 70 Z"/>
  <path d="M 181 108 L 189 108 L 189 109 L 193 109 L 193 110 L 196 110 L 196 111 L 198 111 L 198 112 L 200 112 L 200 113 L 202 113 L 202 114 L 203 114 L 203 115 L 205 115 L 205 116 L 206 116 L 206 117 L 207 117 L 207 118 L 208 118 L 208 120 L 209 120 L 209 121 L 210 121 L 210 123 L 211 123 L 211 124 L 212 124 L 212 126 L 213 126 L 213 129 L 214 129 L 214 132 L 215 132 L 215 180 L 213 180 L 213 181 L 211 181 L 211 182 L 209 182 L 209 183 L 207 183 L 207 184 L 204 184 L 204 185 L 202 185 L 202 186 L 200 186 L 200 187 L 198 187 L 198 188 L 196 188 L 196 189 L 193 189 L 193 190 L 191 190 L 191 191 L 189 191 L 189 192 L 186 192 L 186 193 L 184 193 L 184 194 L 182 194 L 182 195 L 179 195 L 179 196 L 177 196 L 177 197 L 175 197 L 175 198 L 173 198 L 173 199 L 172 199 L 172 200 L 170 200 L 170 256 L 169 256 L 169 258 L 168 258 L 168 259 L 167 259 L 167 260 L 164 260 L 164 261 L 159 261 L 159 260 L 157 260 L 157 259 L 156 259 L 156 258 L 155 258 L 155 133 L 156 133 L 156 130 L 157 130 L 157 127 L 158 127 L 158 125 L 159 125 L 159 123 L 160 123 L 160 122 L 161 122 L 161 120 L 162 120 L 162 119 L 163 119 L 163 118 L 164 118 L 164 117 L 165 117 L 165 116 L 166 116 L 166 115 L 167 115 L 167 114 L 169 114 L 169 113 L 170 113 L 170 112 L 172 112 L 172 111 L 174 111 L 174 110 L 177 110 L 177 109 L 181 109 L 181 108 Z"/>
  <path d="M 185 123 L 184 123 L 184 124 L 180 124 L 180 125 L 178 125 L 178 126 L 176 126 L 176 127 L 175 127 L 175 128 L 174 128 L 174 129 L 173 129 L 173 130 L 172 130 L 172 132 L 171 132 L 171 134 L 170 134 L 170 154 L 169 154 L 169 162 L 170 162 L 170 182 L 169 182 L 169 183 L 171 183 L 171 182 L 172 182 L 172 181 L 175 181 L 175 180 L 177 180 L 177 179 L 179 179 L 179 178 L 182 178 L 182 177 L 184 177 L 184 176 L 186 176 L 186 175 L 189 175 L 189 174 L 191 174 L 191 173 L 193 173 L 193 172 L 195 172 L 195 171 L 198 171 L 198 170 L 200 170 L 200 169 L 201 169 L 201 136 L 200 136 L 200 133 L 199 133 L 199 131 L 198 131 L 198 130 L 197 130 L 197 129 L 196 129 L 196 128 L 195 128 L 195 127 L 194 127 L 194 126 L 193 126 L 193 125 L 191 125 L 191 124 L 187 124 L 187 123 L 185 123 Z"/>
  <path d="M 243 157 L 245 157 L 245 171 L 244 171 L 244 172 L 243 172 L 243 173 L 241 173 L 241 174 L 240 174 L 240 175 L 238 175 L 238 176 L 237 176 L 237 177 L 235 177 L 235 178 L 234 178 L 234 179 L 232 179 L 232 180 L 229 180 L 229 172 L 230 172 L 230 166 L 231 166 L 231 165 L 233 165 L 233 164 L 234 164 L 234 163 L 236 163 L 236 162 L 238 162 L 238 161 L 239 161 L 239 160 L 241 160 L 241 159 L 242 159 L 242 158 L 243 158 L 243 157 Z"/>
  <path d="M 243 179 L 245 179 L 245 265 L 244 265 L 244 269 L 243 269 L 243 271 L 242 271 L 242 274 L 241 274 L 241 276 L 240 276 L 240 278 L 239 278 L 239 279 L 238 279 L 238 281 L 237 281 L 237 282 L 236 282 L 236 283 L 235 283 L 235 284 L 234 284 L 234 285 L 233 285 L 233 286 L 232 286 L 232 287 L 230 287 L 230 288 L 229 288 L 229 289 L 227 289 L 227 290 L 225 290 L 225 291 L 222 291 L 222 292 L 218 292 L 218 293 L 214 293 L 214 292 L 209 292 L 209 291 L 207 291 L 207 290 L 205 290 L 205 289 L 204 289 L 204 288 L 202 288 L 202 289 L 201 289 L 201 290 L 199 290 L 199 291 L 197 291 L 197 292 L 192 292 L 192 293 L 189 293 L 189 292 L 185 292 L 185 291 L 183 291 L 183 290 L 181 290 L 181 289 L 180 289 L 180 288 L 179 288 L 179 287 L 175 287 L 175 288 L 174 288 L 174 289 L 172 289 L 172 290 L 169 290 L 169 291 L 166 291 L 166 292 L 161 292 L 161 293 L 154 293 L 154 292 L 149 292 L 149 291 L 145 291 L 145 290 L 143 290 L 143 289 L 141 289 L 141 288 L 139 288 L 139 287 L 138 287 L 138 286 L 137 286 L 137 285 L 136 285 L 136 284 L 134 284 L 134 283 L 133 283 L 133 282 L 132 282 L 132 280 L 131 280 L 131 279 L 130 279 L 130 278 L 129 278 L 129 276 L 128 276 L 128 274 L 127 274 L 127 272 L 126 272 L 126 269 L 125 269 L 125 266 L 124 266 L 124 261 L 123 261 L 123 238 L 124 238 L 124 237 L 126 237 L 126 236 L 127 236 L 127 235 L 129 235 L 129 234 L 131 234 L 131 233 L 132 233 L 132 232 L 134 232 L 134 231 L 135 231 L 135 230 L 137 230 L 137 229 L 139 229 L 139 261 L 140 261 L 140 264 L 141 264 L 141 266 L 142 266 L 142 268 L 143 268 L 143 270 L 144 270 L 144 271 L 145 271 L 145 272 L 147 272 L 147 273 L 148 273 L 148 274 L 150 274 L 150 275 L 153 275 L 153 276 L 162 276 L 162 275 L 165 275 L 165 274 L 168 274 L 168 273 L 169 273 L 169 272 L 170 272 L 170 271 L 171 271 L 171 270 L 172 270 L 172 269 L 173 269 L 173 268 L 174 268 L 174 266 L 175 266 L 175 264 L 176 264 L 176 261 L 177 261 L 177 257 L 178 257 L 178 213 L 180 213 L 180 212 L 182 212 L 182 211 L 184 211 L 184 210 L 186 210 L 186 209 L 188 209 L 188 208 L 190 208 L 190 207 L 192 207 L 192 206 L 193 206 L 193 261 L 192 261 L 192 265 L 191 265 L 191 268 L 190 268 L 190 271 L 189 271 L 189 273 L 188 273 L 188 275 L 189 275 L 189 276 L 193 276 L 193 275 L 195 275 L 195 274 L 196 274 L 196 273 L 197 273 L 197 272 L 198 272 L 198 271 L 199 271 L 199 269 L 200 269 L 200 267 L 201 267 L 201 265 L 202 265 L 202 262 L 203 262 L 203 258 L 204 258 L 204 200 L 206 200 L 206 199 L 208 199 L 208 198 L 209 198 L 209 197 L 211 197 L 211 196 L 213 196 L 213 195 L 215 195 L 215 194 L 217 194 L 217 193 L 219 193 L 219 258 L 218 258 L 218 264 L 217 264 L 217 268 L 216 268 L 216 271 L 215 271 L 215 273 L 214 273 L 214 275 L 213 275 L 213 276 L 219 276 L 219 275 L 221 275 L 221 274 L 222 274 L 222 273 L 223 273 L 223 272 L 224 272 L 224 271 L 225 271 L 225 270 L 226 270 L 226 269 L 227 269 L 227 266 L 228 266 L 228 263 L 229 263 L 229 241 L 230 241 L 230 229 L 229 229 L 229 224 L 230 224 L 230 187 L 231 187 L 231 186 L 233 186 L 233 185 L 235 185 L 235 184 L 236 184 L 236 183 L 238 183 L 238 182 L 240 182 L 240 181 L 241 181 L 241 180 L 243 180 L 243 179 Z"/>
  <path d="M 49 322 L 51 322 L 51 323 L 52 323 L 52 324 L 53 324 L 53 325 L 54 325 L 54 326 L 55 326 L 55 327 L 56 327 L 56 328 L 57 328 L 57 329 L 58 329 L 58 330 L 59 330 L 59 329 L 60 329 L 60 328 L 61 328 L 61 326 L 62 326 L 62 325 L 63 325 L 63 324 L 64 324 L 64 323 L 65 323 L 65 322 L 68 322 L 68 323 L 69 323 L 69 324 L 70 324 L 70 325 L 71 325 L 71 326 L 72 326 L 72 327 L 73 327 L 73 328 L 74 328 L 74 329 L 75 329 L 75 332 L 74 332 L 74 333 L 73 333 L 73 334 L 72 334 L 72 335 L 71 335 L 71 336 L 70 336 L 70 337 L 69 337 L 69 338 L 68 338 L 68 339 L 65 339 L 65 337 L 64 337 L 64 336 L 63 336 L 63 335 L 62 335 L 62 334 L 61 334 L 61 333 L 60 333 L 60 332 L 59 332 L 59 331 L 58 331 L 58 332 L 57 332 L 57 333 L 56 333 L 56 334 L 55 334 L 55 335 L 54 335 L 54 336 L 53 336 L 53 337 L 52 337 L 52 338 L 51 338 L 51 339 L 49 339 L 49 338 L 48 338 L 48 337 L 47 337 L 47 336 L 46 336 L 46 335 L 45 335 L 45 334 L 44 334 L 44 333 L 43 333 L 43 332 L 42 332 L 42 329 L 43 329 L 43 328 L 44 328 L 44 327 L 45 327 L 45 326 L 46 326 L 46 325 L 47 325 L 47 324 L 48 324 L 48 323 L 49 323 L 49 322 Z"/>
  <path d="M 112 327 L 114 327 L 114 328 L 115 328 L 115 329 L 116 329 L 116 331 L 117 331 L 117 332 L 118 332 L 118 333 L 119 333 L 119 334 L 120 334 L 120 335 L 122 335 L 122 334 L 123 334 L 123 333 L 124 333 L 124 332 L 125 332 L 125 331 L 126 331 L 126 330 L 127 330 L 127 329 L 128 329 L 128 328 L 129 328 L 129 327 L 130 327 L 130 328 L 131 328 L 131 329 L 132 329 L 132 330 L 133 330 L 133 331 L 134 331 L 134 332 L 135 332 L 135 333 L 136 333 L 136 334 L 137 334 L 137 335 L 138 335 L 138 336 L 137 336 L 137 337 L 136 337 L 136 338 L 135 338 L 135 339 L 134 339 L 134 340 L 133 340 L 133 341 L 132 341 L 132 342 L 131 342 L 131 344 L 128 344 L 128 343 L 127 343 L 127 342 L 126 342 L 126 341 L 125 341 L 125 340 L 124 340 L 124 339 L 123 339 L 123 337 L 122 337 L 122 336 L 120 336 L 120 337 L 119 337 L 119 338 L 118 338 L 118 339 L 117 339 L 117 340 L 116 340 L 116 342 L 115 342 L 115 343 L 114 343 L 114 344 L 112 344 L 112 343 L 111 343 L 111 342 L 110 342 L 110 341 L 109 341 L 109 340 L 108 340 L 108 339 L 107 339 L 107 338 L 106 338 L 106 337 L 105 337 L 105 336 L 104 336 L 104 335 L 105 335 L 105 334 L 106 334 L 106 333 L 107 333 L 107 332 L 108 332 L 108 331 L 109 331 L 109 330 L 110 330 L 110 329 L 111 329 L 111 328 L 112 328 L 112 327 Z"/>
  <path d="M 265 327 L 268 327 L 268 328 L 269 328 L 269 330 L 270 330 L 270 331 L 271 331 L 271 332 L 272 332 L 272 333 L 273 333 L 273 334 L 274 334 L 274 335 L 275 335 L 275 337 L 273 337 L 273 338 L 272 338 L 272 340 L 271 340 L 271 341 L 270 341 L 270 342 L 269 342 L 269 343 L 268 343 L 268 344 L 265 344 L 265 343 L 264 343 L 264 342 L 263 342 L 263 341 L 262 341 L 262 340 L 261 340 L 261 339 L 260 339 L 260 338 L 259 338 L 259 337 L 258 337 L 258 335 L 259 335 L 259 334 L 260 334 L 260 332 L 261 332 L 261 331 L 262 331 L 262 330 L 263 330 L 263 329 L 264 329 L 264 328 L 265 328 L 265 327 Z"/>
  <path d="M 52 347 L 77 347 L 77 348 L 78 348 L 78 390 L 77 390 L 77 391 L 101 391 L 101 390 L 100 390 L 100 389 L 99 389 L 99 387 L 98 387 L 98 385 L 97 385 L 97 381 L 96 381 L 96 371 L 97 371 L 97 367 L 98 367 L 98 365 L 99 365 L 99 363 L 100 363 L 100 361 L 101 361 L 101 360 L 102 360 L 102 359 L 103 359 L 103 358 L 104 358 L 104 357 L 105 357 L 105 356 L 106 356 L 106 355 L 107 355 L 107 354 L 109 354 L 109 353 L 110 353 L 110 352 L 113 352 L 113 351 L 116 351 L 116 350 L 126 350 L 126 351 L 130 351 L 130 352 L 132 352 L 132 353 L 134 353 L 134 354 L 135 354 L 135 355 L 137 355 L 137 356 L 138 356 L 138 357 L 139 357 L 139 358 L 140 358 L 140 359 L 141 359 L 141 360 L 142 360 L 142 362 L 143 362 L 143 364 L 144 364 L 144 366 L 145 366 L 145 371 L 146 371 L 146 387 L 145 387 L 145 391 L 159 391 L 159 390 L 161 390 L 161 389 L 163 389 L 163 388 L 164 388 L 164 386 L 165 386 L 165 382 L 166 382 L 166 359 L 178 359 L 178 384 L 177 384 L 177 390 L 179 390 L 179 391 L 188 391 L 188 390 L 189 390 L 189 389 L 190 389 L 190 388 L 191 388 L 191 387 L 192 387 L 192 384 L 193 384 L 193 358 L 205 358 L 205 387 L 204 387 L 204 390 L 206 390 L 206 391 L 216 391 L 216 390 L 217 390 L 217 389 L 218 389 L 218 388 L 219 388 L 219 386 L 220 386 L 220 382 L 221 382 L 221 352 L 233 352 L 233 384 L 232 384 L 232 389 L 231 389 L 231 390 L 233 390 L 233 391 L 259 391 L 259 390 L 260 390 L 260 353 L 272 353 L 272 391 L 286 391 L 286 387 L 285 387 L 285 374 L 286 374 L 286 370 L 287 370 L 287 367 L 288 367 L 288 365 L 289 365 L 289 363 L 290 363 L 290 362 L 291 362 L 291 361 L 292 361 L 292 360 L 293 360 L 293 359 L 294 359 L 294 358 L 295 358 L 295 357 L 296 357 L 296 356 L 297 356 L 297 355 L 299 355 L 299 354 L 302 354 L 302 353 L 305 353 L 305 352 L 314 352 L 314 353 L 317 353 L 317 354 L 319 354 L 319 355 L 321 355 L 321 356 L 323 356 L 323 357 L 324 357 L 324 358 L 325 358 L 325 359 L 326 359 L 326 360 L 327 360 L 327 361 L 328 361 L 328 362 L 329 362 L 329 363 L 330 363 L 330 365 L 331 365 L 331 367 L 332 367 L 332 370 L 333 370 L 333 374 L 334 374 L 334 381 L 333 381 L 333 386 L 332 386 L 332 388 L 331 388 L 331 390 L 330 390 L 330 392 L 329 392 L 329 393 L 328 393 L 328 395 L 327 395 L 327 396 L 326 396 L 326 397 L 325 397 L 325 398 L 323 398 L 323 399 L 322 399 L 322 400 L 320 400 L 320 401 L 317 401 L 317 402 L 313 402 L 313 403 L 269 403 L 269 402 L 267 402 L 267 401 L 265 401 L 265 402 L 263 402 L 263 403 L 231 403 L 231 402 L 228 402 L 228 401 L 226 401 L 226 400 L 225 400 L 225 399 L 224 399 L 224 400 L 223 400 L 223 401 L 221 401 L 221 402 L 219 402 L 219 403 L 215 403 L 215 404 L 209 404 L 209 403 L 204 403 L 204 402 L 202 402 L 202 401 L 200 401 L 200 400 L 199 400 L 199 399 L 196 399 L 196 400 L 195 400 L 195 401 L 193 401 L 193 402 L 191 402 L 191 403 L 187 403 L 187 404 L 181 404 L 181 403 L 176 403 L 176 402 L 174 402 L 174 401 L 173 401 L 173 400 L 171 400 L 171 399 L 169 399 L 169 400 L 167 400 L 167 401 L 165 401 L 165 402 L 162 402 L 162 403 L 53 403 L 53 402 L 49 402 L 49 401 L 46 401 L 46 400 L 44 400 L 44 399 L 42 399 L 42 398 L 41 398 L 41 397 L 39 397 L 39 396 L 38 396 L 38 395 L 37 395 L 37 394 L 36 394 L 36 392 L 35 392 L 35 391 L 34 391 L 34 389 L 33 389 L 33 388 L 32 388 L 32 385 L 31 385 L 31 382 L 30 382 L 30 368 L 31 368 L 31 365 L 32 365 L 32 362 L 33 362 L 33 361 L 34 361 L 34 359 L 35 359 L 35 358 L 36 358 L 36 357 L 37 357 L 37 355 L 38 355 L 38 354 L 40 354 L 40 353 L 41 353 L 41 352 L 42 352 L 42 351 L 44 351 L 44 350 L 45 350 L 45 349 L 48 349 L 48 348 L 52 348 L 52 347 Z"/>
  <path d="M 58 358 L 57 358 L 57 359 L 52 359 L 52 360 L 50 360 L 50 361 L 49 361 L 49 362 L 47 362 L 47 363 L 46 363 L 46 364 L 45 364 L 45 365 L 44 365 L 44 367 L 43 367 L 43 369 L 42 369 L 42 374 L 41 374 L 41 377 L 42 377 L 42 381 L 43 381 L 43 383 L 44 383 L 44 384 L 45 384 L 45 386 L 46 386 L 46 387 L 47 387 L 47 388 L 49 388 L 49 389 L 51 389 L 51 390 L 55 390 L 55 391 L 66 391 L 66 359 L 62 359 L 62 358 L 58 358 Z"/>
  <path d="M 118 362 L 117 362 L 117 363 L 115 363 L 115 364 L 113 364 L 113 365 L 112 365 L 112 366 L 111 366 L 111 367 L 110 367 L 110 369 L 109 369 L 109 372 L 108 372 L 108 381 L 109 381 L 109 383 L 110 383 L 110 385 L 111 385 L 111 386 L 112 386 L 112 387 L 113 387 L 113 388 L 114 388 L 114 389 L 116 389 L 116 390 L 120 390 L 120 391 L 133 391 L 133 386 L 134 386 L 134 370 L 133 370 L 133 368 L 132 368 L 132 367 L 131 367 L 131 366 L 130 366 L 130 365 L 129 365 L 129 364 L 128 364 L 128 363 L 125 363 L 125 362 L 118 362 Z"/>
  <path d="M 308 364 L 307 364 L 307 365 L 304 365 L 304 366 L 302 366 L 302 367 L 301 367 L 301 368 L 300 368 L 300 369 L 299 369 L 299 371 L 298 371 L 298 374 L 297 374 L 297 385 L 298 385 L 298 391 L 311 391 L 311 390 L 315 390 L 315 389 L 316 389 L 316 388 L 318 388 L 318 387 L 319 387 L 319 385 L 320 385 L 320 383 L 321 383 L 321 380 L 322 380 L 322 375 L 321 375 L 321 372 L 320 372 L 320 370 L 319 370 L 319 368 L 318 368 L 318 367 L 317 367 L 317 366 L 315 366 L 315 365 L 312 365 L 312 364 L 308 364 Z"/>
  <path d="M 258 387 L 259 387 L 259 389 L 258 389 L 258 390 L 257 390 L 257 389 L 258 389 L 258 387 Z"/>
  <path d="M 178 388 L 179 388 L 179 389 L 178 389 L 178 388 Z"/>
  <path d="M 205 388 L 206 388 L 206 389 L 205 389 L 205 388 Z"/>
  <path d="M 131 389 L 132 389 L 132 390 L 131 390 L 131 389 Z"/>
  <path d="M 94 429 L 96 429 L 96 430 L 98 430 L 98 455 L 97 455 L 97 456 L 95 456 L 95 455 L 93 455 L 93 440 L 92 440 L 92 442 L 91 442 L 91 444 L 92 444 L 92 447 L 91 447 L 91 444 L 90 444 L 90 446 L 89 446 L 89 448 L 88 448 L 88 450 L 84 450 L 84 449 L 83 449 L 83 446 L 82 446 L 82 444 L 81 444 L 81 443 L 80 443 L 80 440 L 79 440 L 79 455 L 78 455 L 78 456 L 75 456 L 75 455 L 74 455 L 74 430 L 79 430 L 79 431 L 80 431 L 80 433 L 81 433 L 81 435 L 82 435 L 82 437 L 83 437 L 83 439 L 84 439 L 84 441 L 85 441 L 85 443 L 86 443 L 86 442 L 87 442 L 87 441 L 88 441 L 88 439 L 89 439 L 89 437 L 90 437 L 90 435 L 91 435 L 91 433 L 92 433 L 92 431 L 93 431 L 93 430 L 94 430 L 94 429 Z"/>
  <path d="M 270 429 L 272 429 L 272 430 L 273 430 L 273 438 L 274 438 L 274 437 L 275 437 L 275 436 L 280 436 L 280 437 L 282 437 L 282 438 L 283 438 L 283 439 L 284 439 L 284 441 L 285 441 L 285 456 L 281 456 L 281 455 L 280 455 L 280 441 L 278 441 L 278 440 L 276 440 L 276 441 L 274 441 L 274 443 L 273 443 L 273 455 L 272 455 L 272 456 L 269 456 L 269 430 L 270 430 L 270 429 Z"/>
  <path d="M 110 436 L 112 436 L 112 437 L 113 437 L 113 450 L 114 450 L 114 451 L 115 451 L 115 452 L 119 452 L 119 451 L 120 451 L 120 449 L 121 449 L 121 436 L 124 436 L 124 437 L 125 437 L 125 455 L 124 455 L 124 456 L 122 456 L 122 455 L 121 455 L 121 454 L 120 454 L 120 455 L 118 455 L 118 456 L 113 456 L 113 455 L 112 455 L 112 454 L 111 454 L 111 453 L 110 453 L 110 452 L 109 452 L 109 437 L 110 437 L 110 436 Z"/>
  <path d="M 143 436 L 147 436 L 147 437 L 149 437 L 149 438 L 150 438 L 150 439 L 151 439 L 151 441 L 152 441 L 152 455 L 151 455 L 151 456 L 148 456 L 148 443 L 147 443 L 147 441 L 146 441 L 146 440 L 143 440 L 143 441 L 141 441 L 141 443 L 140 443 L 140 456 L 136 456 L 136 437 L 140 437 L 140 438 L 141 438 L 141 437 L 143 437 L 143 436 Z"/>
  <path d="M 167 436 L 171 436 L 171 437 L 173 437 L 173 438 L 175 438 L 175 440 L 176 440 L 176 442 L 172 442 L 172 441 L 171 441 L 171 440 L 167 440 L 167 443 L 168 443 L 168 444 L 172 444 L 172 445 L 174 445 L 174 446 L 175 446 L 175 447 L 176 447 L 176 449 L 177 449 L 177 451 L 176 451 L 176 453 L 175 453 L 175 454 L 174 454 L 174 455 L 172 455 L 172 456 L 166 456 L 166 455 L 164 455 L 164 454 L 163 454 L 163 453 L 162 453 L 162 450 L 166 450 L 166 451 L 167 451 L 167 452 L 172 452 L 172 449 L 171 449 L 171 448 L 167 448 L 167 447 L 165 447 L 165 446 L 164 446 L 164 445 L 163 445 L 163 444 L 162 444 L 162 441 L 163 441 L 163 439 L 164 439 L 164 438 L 165 438 L 165 437 L 167 437 L 167 436 Z"/>
  <path d="M 192 436 L 196 436 L 196 437 L 198 437 L 198 438 L 199 438 L 199 437 L 203 437 L 203 455 L 202 455 L 202 456 L 200 456 L 200 455 L 199 455 L 199 454 L 198 454 L 198 455 L 197 455 L 197 456 L 191 456 L 191 455 L 190 455 L 190 454 L 188 454 L 188 453 L 187 453 L 187 451 L 186 451 L 186 442 L 187 442 L 187 440 L 188 440 L 188 439 L 189 439 L 189 438 L 190 438 L 190 437 L 192 437 L 192 436 Z"/>
  <path d="M 219 436 L 224 436 L 224 437 L 225 437 L 225 438 L 226 438 L 226 437 L 227 437 L 227 436 L 229 436 L 229 437 L 231 437 L 231 445 L 230 445 L 230 462 L 226 462 L 226 455 L 224 455 L 224 456 L 219 456 L 219 455 L 217 455 L 217 454 L 216 454 L 216 453 L 215 453 L 215 452 L 214 452 L 214 449 L 213 449 L 213 443 L 214 443 L 214 441 L 215 441 L 215 439 L 216 439 L 216 438 L 217 438 L 217 437 L 219 437 L 219 436 Z"/>
  <path d="M 247 436 L 251 436 L 251 437 L 253 437 L 253 438 L 254 438 L 254 437 L 255 437 L 255 436 L 257 436 L 257 437 L 258 437 L 258 456 L 254 456 L 254 454 L 253 454 L 253 455 L 251 455 L 251 456 L 246 456 L 246 455 L 244 455 L 244 454 L 243 454 L 243 453 L 242 453 L 242 451 L 241 451 L 241 448 L 240 448 L 240 451 L 239 451 L 239 448 L 240 448 L 240 445 L 241 445 L 241 442 L 242 442 L 242 440 L 243 440 L 243 439 L 244 439 L 244 438 L 245 438 L 245 437 L 247 437 L 247 436 Z"/>
  <path d="M 79 439 L 78 439 L 78 440 L 79 440 L 79 439 Z"/>
  <path d="M 194 440 L 193 440 L 193 441 L 192 441 L 192 442 L 193 442 L 193 443 L 192 443 L 192 442 L 191 442 L 191 443 L 190 443 L 190 449 L 191 449 L 191 451 L 192 451 L 192 452 L 197 452 L 197 451 L 198 451 L 198 449 L 199 449 L 199 443 L 198 443 L 198 441 L 196 441 L 196 440 L 194 440 Z"/>
  <path d="M 222 440 L 221 440 L 221 441 L 219 441 L 219 442 L 218 442 L 218 450 L 219 450 L 219 451 L 220 451 L 220 452 L 224 452 L 224 451 L 225 451 L 225 450 L 226 450 L 226 442 L 225 442 L 225 441 L 223 441 L 223 440 L 222 440 Z"/>
  <path d="M 249 440 L 248 440 L 248 441 L 247 441 L 247 442 L 246 442 L 246 443 L 245 443 L 245 449 L 246 449 L 246 451 L 247 451 L 247 452 L 252 452 L 252 451 L 253 451 L 253 448 L 254 448 L 254 444 L 253 444 L 253 442 L 252 442 L 252 441 L 251 441 L 251 440 L 249 440 Z"/>
  <path d="M 275 442 L 276 442 L 276 443 L 275 443 L 275 442 Z"/>
  <path d="M 278 442 L 279 442 L 279 443 L 278 443 L 278 442 Z"/>
  <path d="M 80 445 L 81 445 L 81 446 L 80 446 L 80 445 Z"/>
  <path d="M 134 452 L 135 452 L 135 453 L 134 453 L 134 452 Z"/>
</g>
</svg>
