<svg xmlns="http://www.w3.org/2000/svg" viewBox="0 0 450 202" width="450" height="202">
<g fill="#211532" fill-rule="evenodd">
  <path d="M 135 21 L 136 21 L 136 22 L 137 22 L 137 168 L 134 168 L 134 22 L 135 22 L 135 21 Z"/>
  <path d="M 39 22 L 41 22 L 41 23 L 42 23 L 42 24 L 43 24 L 43 25 L 44 25 L 44 26 L 45 26 L 45 27 L 46 27 L 46 28 L 47 28 L 47 31 L 46 31 L 46 32 L 45 32 L 45 33 L 44 33 L 44 34 L 43 34 L 43 35 L 42 35 L 42 36 L 41 36 L 41 37 L 39 37 L 39 36 L 38 36 L 38 35 L 37 35 L 37 34 L 36 34 L 36 33 L 35 33 L 35 32 L 34 32 L 34 31 L 33 31 L 33 28 L 34 28 L 34 27 L 35 27 L 35 26 L 36 26 L 36 25 L 37 25 L 37 24 L 38 24 L 38 23 L 39 23 L 39 22 Z"/>
  <path d="M 56 22 L 58 22 L 58 23 L 59 23 L 59 24 L 60 24 L 60 25 L 61 25 L 61 26 L 62 26 L 62 27 L 63 27 L 63 28 L 64 28 L 64 29 L 65 29 L 65 30 L 64 30 L 64 31 L 63 31 L 63 32 L 62 32 L 62 33 L 61 33 L 61 34 L 60 34 L 60 35 L 59 35 L 59 36 L 58 36 L 58 37 L 57 37 L 57 38 L 56 38 L 56 36 L 55 36 L 55 35 L 54 35 L 54 34 L 53 34 L 53 33 L 52 33 L 52 32 L 51 32 L 51 31 L 50 31 L 50 30 L 49 30 L 49 29 L 50 29 L 50 28 L 51 28 L 51 27 L 52 27 L 52 26 L 53 26 L 53 25 L 54 25 L 54 24 L 55 24 L 55 23 L 56 23 L 56 22 Z"/>
  <path d="M 192 41 L 193 41 L 193 42 L 194 42 L 194 43 L 195 43 L 195 44 L 196 44 L 196 45 L 197 45 L 197 46 L 198 46 L 198 47 L 199 47 L 199 48 L 200 48 L 200 47 L 201 47 L 201 46 L 202 46 L 202 44 L 203 44 L 203 43 L 205 43 L 205 42 L 207 42 L 207 43 L 208 43 L 208 44 L 209 44 L 209 45 L 210 45 L 210 46 L 211 46 L 211 47 L 212 47 L 212 48 L 213 48 L 213 49 L 212 49 L 212 50 L 211 50 L 211 51 L 210 51 L 210 52 L 209 52 L 209 53 L 208 53 L 208 54 L 207 54 L 207 55 L 205 55 L 205 54 L 204 54 L 204 53 L 203 53 L 203 52 L 202 52 L 202 51 L 201 51 L 201 50 L 200 50 L 200 49 L 199 49 L 199 50 L 197 50 L 197 52 L 196 52 L 196 53 L 195 53 L 195 54 L 194 54 L 194 55 L 193 55 L 193 56 L 192 56 L 192 55 L 191 55 L 191 54 L 190 54 L 190 53 L 189 53 L 189 52 L 188 52 L 188 51 L 187 51 L 187 50 L 186 50 L 186 47 L 187 47 L 187 46 L 188 46 L 188 45 L 189 45 L 189 44 L 190 44 L 190 43 L 191 43 L 191 42 L 192 42 L 192 41 Z"/>
  <path d="M 47 44 L 50 44 L 50 45 L 57 45 L 57 46 L 61 46 L 61 47 L 63 47 L 63 48 L 65 48 L 65 49 L 67 49 L 67 50 L 68 50 L 68 51 L 69 51 L 69 52 L 71 52 L 71 53 L 72 53 L 72 54 L 73 54 L 73 55 L 74 55 L 74 57 L 75 57 L 75 58 L 76 58 L 76 59 L 77 59 L 77 61 L 78 61 L 78 62 L 79 62 L 79 64 L 80 64 L 80 67 L 81 67 L 81 70 L 82 70 L 82 75 L 83 75 L 83 87 L 82 87 L 82 88 L 81 88 L 81 89 L 79 89 L 79 90 L 78 90 L 78 91 L 77 91 L 77 92 L 76 92 L 76 93 L 74 93 L 74 76 L 73 76 L 73 72 L 72 72 L 72 70 L 71 70 L 71 67 L 70 67 L 70 65 L 69 65 L 69 64 L 68 64 L 68 63 L 67 63 L 67 61 L 66 61 L 66 60 L 64 60 L 64 59 L 63 59 L 63 58 L 62 58 L 62 57 L 60 57 L 60 56 L 58 56 L 58 55 L 56 55 L 56 54 L 50 54 L 50 53 L 49 53 L 49 54 L 44 54 L 44 55 L 41 55 L 41 56 L 39 56 L 39 57 L 37 57 L 37 58 L 35 58 L 35 59 L 34 59 L 34 60 L 33 60 L 33 61 L 32 61 L 32 62 L 31 62 L 31 63 L 30 63 L 30 64 L 29 64 L 29 66 L 28 66 L 28 68 L 27 68 L 27 70 L 26 70 L 26 73 L 25 73 L 25 77 L 24 77 L 24 125 L 22 125 L 22 126 L 20 126 L 20 127 L 19 127 L 19 128 L 17 128 L 17 129 L 15 129 L 15 77 L 16 77 L 16 71 L 17 71 L 17 68 L 18 68 L 18 66 L 19 66 L 19 64 L 20 64 L 20 62 L 21 62 L 21 60 L 22 60 L 22 59 L 23 59 L 23 57 L 24 57 L 24 56 L 25 56 L 25 55 L 26 55 L 26 54 L 27 54 L 27 53 L 28 53 L 28 52 L 29 52 L 29 51 L 31 51 L 31 50 L 32 50 L 32 49 L 34 49 L 34 48 L 36 48 L 36 47 L 38 47 L 38 46 L 41 46 L 41 45 L 47 45 L 47 44 Z"/>
  <path d="M 242 46 L 244 46 L 244 47 L 245 47 L 245 48 L 246 48 L 246 49 L 247 49 L 247 50 L 248 50 L 248 51 L 249 51 L 249 54 L 248 54 L 248 55 L 247 55 L 247 56 L 246 56 L 246 57 L 245 57 L 245 59 L 244 59 L 244 60 L 242 60 L 242 59 L 241 59 L 241 58 L 240 58 L 240 57 L 239 57 L 239 56 L 238 56 L 238 55 L 237 55 L 237 54 L 236 54 L 236 52 L 237 52 L 237 51 L 238 51 L 238 50 L 239 50 L 239 49 L 240 49 L 240 48 L 241 48 L 241 47 L 242 47 L 242 46 Z"/>
  <path d="M 255 46 L 257 46 L 257 47 L 258 47 L 258 48 L 259 48 L 259 49 L 260 49 L 260 50 L 261 50 L 261 51 L 262 51 L 262 52 L 263 52 L 263 54 L 262 54 L 262 55 L 261 55 L 261 56 L 260 56 L 260 57 L 259 57 L 259 58 L 258 58 L 258 59 L 257 59 L 257 60 L 255 60 L 255 58 L 254 58 L 254 57 L 253 57 L 253 56 L 252 56 L 252 55 L 251 55 L 251 54 L 250 54 L 250 51 L 251 51 L 251 50 L 252 50 L 252 49 L 253 49 L 253 48 L 254 48 L 254 47 L 255 47 L 255 46 Z"/>
  <path d="M 364 46 L 366 46 L 366 47 L 367 47 L 367 48 L 368 48 L 368 49 L 369 49 L 369 50 L 370 50 L 370 51 L 371 51 L 371 52 L 372 52 L 372 54 L 371 54 L 371 55 L 370 55 L 370 56 L 369 56 L 369 57 L 368 57 L 368 58 L 367 58 L 367 59 L 366 59 L 366 60 L 364 60 L 364 59 L 363 59 L 363 58 L 362 58 L 362 56 L 361 56 L 361 55 L 359 55 L 359 51 L 360 51 L 360 50 L 361 50 L 361 49 L 362 49 L 362 48 L 363 48 L 363 47 L 364 47 L 364 46 Z"/>
  <path d="M 193 62 L 214 62 L 214 63 L 215 63 L 215 98 L 229 98 L 229 97 L 232 97 L 232 98 L 233 98 L 233 96 L 232 96 L 232 94 L 231 94 L 231 92 L 230 92 L 230 79 L 231 79 L 231 77 L 232 77 L 232 75 L 233 75 L 233 73 L 234 73 L 234 72 L 235 72 L 235 71 L 236 71 L 236 70 L 237 70 L 237 69 L 238 69 L 238 68 L 239 68 L 239 67 L 241 67 L 241 66 L 243 66 L 243 65 L 247 65 L 247 64 L 252 64 L 252 65 L 257 65 L 257 66 L 259 66 L 259 67 L 261 67 L 261 68 L 262 68 L 262 69 L 263 69 L 263 70 L 264 70 L 264 71 L 265 71 L 265 72 L 266 72 L 266 73 L 267 73 L 267 75 L 268 75 L 268 77 L 269 77 L 269 81 L 270 81 L 270 94 L 269 94 L 269 98 L 279 98 L 279 97 L 282 97 L 282 96 L 284 96 L 284 94 L 285 94 L 285 90 L 286 90 L 286 72 L 295 72 L 295 95 L 294 95 L 294 96 L 295 96 L 295 97 L 297 97 L 297 98 L 302 98 L 302 97 L 304 97 L 304 96 L 305 96 L 305 95 L 306 95 L 306 93 L 307 93 L 307 71 L 317 71 L 317 95 L 316 95 L 316 97 L 318 97 L 318 98 L 325 98 L 325 97 L 326 97 L 326 96 L 327 96 L 327 95 L 328 95 L 328 93 L 329 93 L 329 66 L 339 66 L 339 93 L 338 93 L 338 97 L 340 97 L 340 98 L 359 98 L 359 97 L 360 97 L 360 67 L 370 67 L 370 98 L 381 98 L 381 97 L 380 97 L 380 82 L 381 82 L 381 79 L 382 79 L 382 77 L 383 77 L 383 75 L 384 75 L 384 74 L 385 74 L 385 72 L 386 72 L 386 71 L 388 71 L 388 70 L 389 70 L 389 69 L 390 69 L 390 68 L 392 68 L 392 67 L 396 67 L 396 66 L 403 66 L 403 67 L 406 67 L 406 68 L 408 68 L 408 69 L 410 69 L 410 70 L 411 70 L 411 71 L 412 71 L 412 72 L 413 72 L 413 73 L 414 73 L 414 74 L 415 74 L 415 75 L 416 75 L 416 77 L 417 77 L 417 80 L 418 80 L 418 84 L 419 84 L 419 90 L 418 90 L 418 94 L 417 94 L 417 96 L 416 96 L 416 98 L 415 98 L 415 100 L 414 100 L 414 101 L 413 101 L 413 102 L 412 102 L 412 103 L 411 103 L 411 104 L 409 104 L 409 105 L 407 105 L 407 106 L 405 106 L 405 107 L 366 107 L 366 106 L 364 106 L 364 107 L 336 107 L 336 106 L 333 106 L 333 105 L 331 105 L 331 106 L 329 106 L 329 107 L 326 107 L 326 108 L 318 108 L 318 107 L 315 107 L 315 106 L 313 106 L 313 105 L 312 105 L 312 104 L 310 104 L 310 105 L 309 105 L 309 106 L 307 106 L 307 107 L 304 107 L 304 108 L 296 108 L 296 107 L 293 107 L 293 106 L 291 106 L 291 105 L 290 105 L 290 104 L 289 104 L 289 105 L 287 105 L 287 106 L 285 106 L 285 107 L 193 107 L 193 106 L 190 106 L 190 105 L 188 105 L 188 104 L 186 104 L 186 103 L 185 103 L 185 102 L 184 102 L 184 101 L 183 101 L 183 100 L 182 100 L 182 99 L 181 99 L 181 98 L 180 98 L 180 97 L 179 97 L 179 94 L 178 94 L 178 92 L 177 92 L 177 87 L 176 87 L 176 83 L 177 83 L 177 78 L 178 78 L 178 75 L 179 75 L 179 73 L 180 73 L 180 72 L 181 72 L 181 70 L 182 70 L 182 69 L 183 69 L 183 68 L 184 68 L 184 67 L 185 67 L 185 66 L 187 66 L 187 65 L 188 65 L 188 64 L 190 64 L 190 63 L 193 63 L 193 62 Z"/>
  <path d="M 49 66 L 51 66 L 51 67 L 56 67 L 56 68 L 58 68 L 58 69 L 59 69 L 59 70 L 60 70 L 60 71 L 61 71 L 61 72 L 62 72 L 62 73 L 63 73 L 63 74 L 64 74 L 64 76 L 65 76 L 65 78 L 66 78 L 66 104 L 65 104 L 65 105 L 63 105 L 63 106 L 61 106 L 61 107 L 59 107 L 59 108 L 56 108 L 56 109 L 54 109 L 54 110 L 51 110 L 51 111 L 49 111 L 49 112 L 47 112 L 47 113 L 44 113 L 44 114 L 42 114 L 42 115 L 41 115 L 41 146 L 40 146 L 40 147 L 38 147 L 38 148 L 35 148 L 35 147 L 33 147 L 33 145 L 32 145 L 32 121 L 33 121 L 33 119 L 32 119 L 32 105 L 33 105 L 33 79 L 34 79 L 34 76 L 35 76 L 35 74 L 36 74 L 36 73 L 37 73 L 37 72 L 38 72 L 38 71 L 39 71 L 39 70 L 40 70 L 40 69 L 41 69 L 41 68 L 44 68 L 44 67 L 49 67 L 49 66 Z"/>
  <path d="M 198 71 L 197 71 L 197 72 L 194 72 L 194 73 L 192 73 L 192 74 L 191 74 L 191 75 L 190 75 L 190 76 L 189 76 L 189 77 L 188 77 L 188 79 L 187 79 L 187 81 L 186 81 L 186 89 L 187 89 L 187 91 L 188 91 L 188 93 L 189 93 L 189 94 L 190 94 L 190 95 L 191 95 L 191 96 L 194 96 L 194 97 L 198 97 L 198 98 L 203 98 L 203 97 L 204 97 L 204 98 L 205 98 L 205 71 L 204 71 L 204 72 L 203 72 L 203 71 L 198 71 Z"/>
  <path d="M 248 74 L 247 74 L 247 75 L 244 75 L 244 76 L 243 76 L 243 77 L 242 77 L 242 78 L 241 78 L 241 80 L 240 80 L 240 83 L 239 83 L 239 89 L 240 89 L 240 91 L 241 91 L 241 93 L 242 93 L 242 94 L 243 94 L 243 95 L 244 95 L 244 96 L 246 96 L 246 97 L 253 97 L 253 98 L 259 98 L 259 94 L 260 94 L 260 81 L 259 81 L 259 79 L 258 79 L 258 77 L 257 77 L 257 76 L 255 76 L 255 75 L 253 75 L 253 74 L 248 74 Z"/>
  <path d="M 47 75 L 46 75 L 46 76 L 45 76 L 45 77 L 44 77 L 44 78 L 43 78 L 43 79 L 42 79 L 42 81 L 41 81 L 41 105 L 43 105 L 43 104 L 45 104 L 45 103 L 47 103 L 47 102 L 49 102 L 49 101 L 52 101 L 52 100 L 54 100 L 54 99 L 56 99 L 56 98 L 58 98 L 58 81 L 57 81 L 57 79 L 56 79 L 56 78 L 55 78 L 55 77 L 54 77 L 54 76 L 52 76 L 52 75 L 47 75 Z"/>
  <path d="M 397 76 L 396 76 L 396 77 L 394 77 L 394 78 L 393 78 L 393 79 L 392 79 L 392 80 L 391 80 L 391 82 L 390 82 L 390 97 L 391 97 L 391 98 L 400 98 L 400 97 L 404 97 L 404 96 L 405 96 L 405 95 L 406 95 L 406 94 L 407 94 L 407 93 L 408 93 L 408 90 L 409 90 L 409 83 L 408 83 L 408 81 L 407 81 L 407 79 L 406 79 L 406 78 L 405 78 L 405 77 L 402 77 L 402 76 L 397 76 Z"/>
  <path d="M 305 83 L 306 83 L 306 84 L 305 84 L 305 83 Z"/>
  <path d="M 80 92 L 83 92 L 83 99 L 82 99 L 82 100 L 80 100 L 80 101 L 79 101 L 79 102 L 77 102 L 77 103 L 76 103 L 76 104 L 74 104 L 74 96 L 75 96 L 75 95 L 77 95 L 77 94 L 79 94 L 79 93 L 80 93 L 80 92 Z"/>
  <path d="M 230 95 L 231 95 L 231 96 L 230 96 L 230 95 Z"/>
  <path d="M 81 103 L 83 103 L 83 148 L 82 148 L 82 153 L 81 153 L 81 155 L 80 155 L 80 157 L 79 157 L 79 158 L 78 158 L 78 160 L 77 160 L 77 161 L 76 161 L 76 162 L 74 162 L 74 163 L 72 163 L 72 164 L 70 164 L 70 165 L 63 165 L 63 164 L 61 164 L 61 163 L 58 163 L 58 164 L 55 164 L 55 165 L 50 165 L 50 164 L 47 164 L 47 163 L 46 163 L 46 162 L 44 162 L 44 163 L 42 163 L 42 164 L 39 164 L 39 165 L 30 165 L 30 164 L 27 164 L 27 163 L 25 163 L 25 162 L 24 162 L 24 161 L 22 161 L 22 160 L 21 160 L 21 159 L 20 159 L 20 158 L 19 158 L 19 156 L 18 156 L 18 154 L 17 154 L 17 152 L 16 152 L 16 149 L 15 149 L 15 135 L 17 135 L 17 134 L 18 134 L 18 133 L 20 133 L 20 132 L 21 132 L 21 131 L 23 131 L 23 130 L 24 130 L 24 146 L 25 146 L 25 149 L 26 149 L 26 151 L 27 151 L 27 152 L 28 152 L 28 153 L 29 153 L 29 154 L 31 154 L 31 155 L 38 155 L 38 154 L 40 154 L 40 153 L 42 153 L 42 152 L 43 152 L 43 150 L 44 150 L 44 148 L 45 148 L 45 123 L 46 123 L 46 122 L 47 122 L 47 121 L 49 121 L 49 120 L 50 120 L 50 119 L 52 119 L 52 118 L 54 118 L 54 148 L 53 148 L 53 152 L 52 152 L 52 154 L 51 154 L 51 155 L 55 155 L 55 154 L 56 154 L 56 153 L 57 153 L 57 151 L 58 151 L 58 149 L 59 149 L 59 115 L 60 115 L 60 114 L 62 114 L 62 113 L 64 113 L 64 112 L 66 112 L 66 111 L 68 111 L 68 149 L 67 149 L 67 153 L 66 153 L 66 155 L 69 155 L 69 154 L 71 154 L 71 152 L 72 152 L 72 151 L 73 151 L 73 146 L 74 146 L 74 108 L 75 108 L 75 107 L 77 107 L 77 106 L 78 106 L 78 105 L 80 105 L 80 104 L 81 104 L 81 103 Z"/>
  <path d="M 182 124 L 187 124 L 187 125 L 188 125 L 188 127 L 189 127 L 189 129 L 190 129 L 190 131 L 191 131 L 191 133 L 192 133 L 192 135 L 193 135 L 193 137 L 194 137 L 194 139 L 195 139 L 195 137 L 196 137 L 196 135 L 197 135 L 197 133 L 198 133 L 198 131 L 199 131 L 199 129 L 200 129 L 200 127 L 201 127 L 201 125 L 202 125 L 202 124 L 207 124 L 207 127 L 206 127 L 206 129 L 207 129 L 207 131 L 206 131 L 206 134 L 207 134 L 207 135 L 206 135 L 206 149 L 207 149 L 207 150 L 206 150 L 206 151 L 203 151 L 203 150 L 202 150 L 202 133 L 201 133 L 201 136 L 200 136 L 200 138 L 199 138 L 199 139 L 198 139 L 198 141 L 197 141 L 197 143 L 196 143 L 196 145 L 193 145 L 193 144 L 192 144 L 192 142 L 191 142 L 191 140 L 190 140 L 190 138 L 189 138 L 189 136 L 188 136 L 188 134 L 187 134 L 187 132 L 186 132 L 186 151 L 182 151 L 182 124 Z"/>
  <path d="M 399 124 L 403 124 L 403 132 L 405 132 L 405 131 L 412 131 L 412 132 L 413 132 L 413 133 L 414 133 L 414 134 L 415 134 L 415 137 L 416 137 L 416 150 L 415 150 L 415 151 L 412 151 L 412 150 L 411 150 L 411 136 L 410 136 L 410 135 L 405 135 L 405 136 L 404 136 L 404 138 L 403 138 L 403 151 L 399 151 L 399 124 Z"/>
  <path d="M 220 131 L 225 131 L 225 146 L 226 146 L 226 147 L 230 147 L 230 146 L 231 146 L 231 145 L 232 145 L 232 143 L 233 143 L 233 137 L 232 137 L 232 132 L 233 132 L 233 131 L 237 131 L 237 150 L 236 150 L 236 151 L 233 151 L 233 149 L 232 149 L 232 150 L 230 150 L 230 151 L 224 151 L 224 150 L 223 150 L 223 149 L 222 149 L 222 148 L 221 148 L 221 145 L 220 145 L 220 131 Z"/>
  <path d="M 250 131 L 254 131 L 254 133 L 255 133 L 255 132 L 256 132 L 256 131 L 263 131 L 263 132 L 264 132 L 264 133 L 265 133 L 265 134 L 266 134 L 266 137 L 267 137 L 267 151 L 263 151 L 263 150 L 262 150 L 262 148 L 263 148 L 263 138 L 262 138 L 262 136 L 261 136 L 261 135 L 256 135 L 256 136 L 255 136 L 255 138 L 254 138 L 254 151 L 250 151 L 250 131 Z"/>
  <path d="M 283 131 L 290 131 L 290 132 L 292 132 L 292 133 L 293 133 L 293 136 L 290 136 L 290 135 L 284 135 L 284 138 L 286 138 L 286 139 L 290 139 L 290 140 L 292 140 L 292 141 L 293 141 L 293 142 L 294 142 L 294 148 L 293 148 L 293 149 L 292 149 L 292 150 L 290 150 L 290 151 L 283 151 L 283 150 L 281 150 L 281 149 L 280 149 L 280 148 L 279 148 L 279 145 L 283 145 L 283 146 L 284 146 L 284 147 L 289 147 L 289 146 L 290 146 L 290 144 L 289 144 L 289 143 L 285 143 L 285 142 L 282 142 L 282 141 L 281 141 L 281 140 L 280 140 L 280 138 L 279 138 L 279 135 L 280 135 L 280 133 L 281 133 L 281 132 L 283 132 L 283 131 Z"/>
  <path d="M 311 131 L 318 131 L 318 132 L 320 132 L 320 131 L 324 131 L 324 151 L 320 151 L 320 149 L 319 149 L 319 150 L 318 150 L 318 151 L 311 151 L 311 150 L 310 150 L 310 149 L 309 149 L 309 148 L 308 148 L 308 147 L 307 147 L 307 145 L 306 145 L 306 137 L 307 137 L 307 135 L 308 135 L 308 134 L 309 134 L 309 133 L 310 133 L 310 132 L 311 132 L 311 131 Z"/>
  <path d="M 342 131 L 349 131 L 349 132 L 351 132 L 351 131 L 355 131 L 355 157 L 354 157 L 354 158 L 351 158 L 351 156 L 350 156 L 350 150 L 349 150 L 349 151 L 342 151 L 342 150 L 341 150 L 341 149 L 339 149 L 339 147 L 338 147 L 338 145 L 337 145 L 337 137 L 338 137 L 338 135 L 339 135 L 339 133 L 340 133 L 340 132 L 342 132 L 342 131 Z"/>
  <path d="M 373 131 L 380 131 L 380 132 L 381 132 L 381 131 L 385 131 L 385 132 L 386 132 L 386 136 L 385 136 L 385 151 L 382 151 L 382 150 L 381 150 L 381 149 L 380 149 L 380 150 L 379 150 L 379 151 L 373 151 L 373 150 L 371 150 L 371 149 L 370 149 L 370 148 L 369 148 L 369 146 L 368 146 L 368 136 L 369 136 L 369 134 L 370 134 L 370 133 L 371 133 L 371 132 L 373 132 L 373 131 Z"/>
  <path d="M 313 135 L 312 135 L 312 137 L 311 137 L 311 140 L 310 140 L 310 142 L 311 142 L 311 145 L 312 145 L 312 146 L 313 146 L 313 147 L 318 147 L 318 146 L 319 146 L 319 144 L 320 144 L 320 138 L 319 138 L 319 136 L 318 136 L 318 135 L 313 135 Z"/>
  <path d="M 344 135 L 343 135 L 343 136 L 342 136 L 342 138 L 341 138 L 341 144 L 342 144 L 342 146 L 343 146 L 343 147 L 348 147 L 348 146 L 349 146 L 349 145 L 350 145 L 350 144 L 351 144 L 351 138 L 350 138 L 350 136 L 349 136 L 349 135 L 344 135 Z"/>
  <path d="M 375 135 L 374 135 L 374 136 L 373 136 L 373 137 L 372 137 L 372 145 L 373 145 L 373 146 L 374 146 L 374 147 L 379 147 L 379 146 L 380 146 L 380 145 L 381 145 L 381 137 L 380 137 L 380 136 L 379 136 L 379 135 L 375 135 Z"/>
  <path d="M 285 136 L 286 136 L 286 137 L 285 137 L 285 136 Z"/>
  <path d="M 317 137 L 318 137 L 318 138 L 317 138 L 317 137 Z"/>
  <path d="M 409 137 L 410 137 L 410 138 L 409 138 L 409 137 Z"/>
  <path d="M 304 138 L 305 138 L 305 142 L 304 142 L 304 138 Z"/>
  <path d="M 317 144 L 318 144 L 318 145 L 317 145 L 317 146 L 314 146 L 314 145 L 317 145 L 317 144 Z"/>
  <path d="M 286 145 L 288 145 L 288 146 L 286 146 L 286 145 Z"/>
</g>
</svg>
